<?xml version="1.0" standalone="no"?>
<!DOCTYPE svg PUBLIC "-//W3C//DTD SVG 20010904//EN"
 "http://www.w3.org/TR/2001/REC-SVG-20010904/DTD/svg10.dtd">
<svg version="1.0" xmlns="http://www.w3.org/2000/svg"
 width="260.000000pt" height="260.000000pt" viewBox="0 0 260.000000 260.000000"
 preserveAspectRatio="xMidYMid meet">
<metadata>
Created by potrace 1.11, written by Peter Selinger 2001-2013
</metadata>
<g transform="translate(0.000000,260.000000) scale(0.100000,-0.100000)"
fill="#000000" stroke="none">
<path d="M0 1300 l0 -1300 1300 0 1300 0 0 1300 0 1300 -1300 0 -1300 0 0
-1300z m1870 0 l0 -570 -570 0 -570 0 0 570 0 570 570 0 570 0 0 -570z"/>
<path d="M1180 1290 c0 -349 2 -400 15 -400 13 0 15 29 15 199 l0 199 71 4
c67 4 73 6 105 40 41 46 58 104 52 188 -9 127 -55 170 -180 170 l-78 0 0 -400z
m158 350 c42 -26 62 -73 62 -145 0 -109 -53 -175 -141 -175 l-49 0 0 170 0
170 48 0 c29 0 59 -8 80 -20z"/>
</g>
</svg>
